<?xml version="1.0" standalone="no"?>
<!DOCTYPE svg PUBLIC "-//W3C//DTD SVG 20010904//EN"
 "http://www.w3.org/TR/2001/REC-SVG-20010904/DTD/svg10.dtd">
<svg version="1.0" xmlns="http://www.w3.org/2000/svg"
 width="472.000000pt" height="472.000000pt" viewBox="0 0 472.000000 472.000000"
 preserveAspectRatio="xMidYMid meet">

<g transform="translate(0.000000,472.000000) scale(0.100000,-0.100000)"
fill="#000000" stroke="none">
<path d="M1170 4219 c-98 -44 -170 -151 -170 -254 0 -107 80 -220 183 -260 67
-25 170 -17 230 18 166 98 189 328 45 451 -77 66 -199 85 -288 45z"/>
<path d="M2245 3962 l-260 -97 -5 -439 -5 -438 -145 -52 -145 -52 -5 205 c-5
200 -6 208 -33 263 -49 100 -145 167 -252 176 -49 3 -103 -5 -282 -47 -121
-28 -224 -51 -227 -51 -3 0 -6 -471 -6 -1046 0 -833 3 -1045 12 -1042 7 3 187
51 401 108 l387 103 0 367 0 367 143 52 c78 28 145 51 150 51 4 0 7 -381 7
-847 0 -839 0 -847 21 -890 26 -55 88 -93 149 -93 32 0 112 30 336 127 l294
126 0 664 c0 364 3 663 7 663 4 0 74 -44 155 -97 l148 -98 0 -296 c0 -326 2
-336 62 -404 40 -47 98 -75 162 -82 42 -3 99 8 309 65 142 38 260 71 262 74 3
3 4 466 3 1030 l-3 1025 -397 -91 -398 -91 0 -272 c0 -176 -4 -273 -10 -273
-6 0 -75 43 -155 96 l-145 97 -2 547 -3 546 -28 42 c-43 66 -97 96 -176 99
-62 3 -81 -3 -326 -95z"/>
<path d="M3380 1009 c-55 -25 -114 -80 -143 -134 -31 -57 -31 -183 0 -240 29
-55 99 -118 156 -140 130 -49 289 19 348 149 29 64 26 169 -7 234 -64 129
-227 189 -354 131z"/>
</g>
</svg>
